<?xml version="1.0" standalone="no"?>
<!DOCTYPE svg PUBLIC "-//W3C//DTD SVG 20010904//EN"
 "http://www.w3.org/TR/2001/REC-SVG-20010904/DTD/svg10.dtd">
<svg version="1.0" xmlns="http://www.w3.org/2000/svg"
 width="30pt" viewBox="0 0 512.000000 512.000000"
 preserveAspectRatio="xMidYMid meet">

<g transform="translate(0.000000,512.000000) scale(0.100000,-0.100000)"
fill="#000000" stroke="none">
<path d="M1205 5099 c-347 -40 -686 -231 -906 -510 -374 -473 -397 -1122 -58
-1621 80 -117 238 -276 351 -352 l87 -59 3 -209 c3 -207 3 -210 27 -229 30
-25 76 -24 101 1 19 19 20 31 18 273 l-3 252 -50 31 c-338 215 -521 468 -601
831 -26 116 -24 347 4 479 97 456 443 818 892 934 148 38 263 41 1320 38 1005
-4 1016 -4 1110 -26 410 -96 744 -391 884 -781 51 -141 70 -253 70 -411 1
-210 -29 -339 -126 -541 -47 -100 -49 -108 -37 -135 17 -35 58 -51 97 -38 52
18 157 260 199 459 12 57 17 130 17 255 0 154 -3 188 -27 288 -126 538 -520
932 -1055 1054 -97 22 -101 22 -1167 24 -598 1 -1105 -2 -1150 -7z"/>
<path d="M2819 4857 c-95 -35 -104 -45 -388 -389 l-213 -258 -117 0 c-128 0
-163 -8 -229 -51 l-42 -28 -36 24 c-50 34 -73 37 -301 33 l-201 -3 -43 -30
c-26 -18 -53 -50 -68 -80 l-26 -49 0 -576 c0 -627 -1 -620 58 -680 61 -63 89
-70 307 -70 183 0 198 2 245 23 l50 23 43 -33 c83 -63 93 -64 664 -61 497 3
515 4 570 25 168 64 293 196 342 362 22 76 24 770 2 842 -23 74 -55 129 -109
186 -62 66 -134 108 -221 130 l-66 16 30 37 c16 20 47 59 69 86 67 81 85 126
85 224 1 69 -4 94 -23 132 -29 61 -89 121 -148 149 -58 28 -180 36 -234 16z
m172 -169 c41 -23 79 -85 79 -129 -1 -42 -36 -101 -119 -199 -84 -99 -98 -131
-88 -197 11 -67 66 -107 160 -116 111 -11 210 -84 247 -184 19 -50 20 -78 20
-394 0 -380 -4 -409 -65 -495 -44 -61 -102 -107 -173 -136 -57 -23 -59 -23
-553 -23 -544 0 -531 -1 -569 61 -19 30 -20 52 -20 559 0 518 0 527 21 556 36
51 65 59 206 59 109 0 133 3 160 20 18 10 117 121 220 247 278 335 303 364
337 379 45 20 93 17 137 -8z"/>
<path d="M4122 2901 c-22 -16 -43 -35 -47 -41 -3 -6 -33 -32 -64 -59 l-58 -48
-74 10 c-94 11 -289 3 -397 -18 -161 -31 -347 -105 -488 -195 l-48 -30 -671 0
-672 0 -20 -22 c-12 -13 -116 -236 -231 -496 -115 -260 -218 -482 -228 -494
-67 -75 -211 -58 -267 32 -20 32 -22 51 -26 203 -3 166 -3 167 -29 188 -30 23
-65 19 -97 -12 -18 -17 -20 -35 -23 -150 -6 -211 20 -305 103 -378 64 -56 112
-74 207 -79 76 -4 92 -1 140 20 63 30 121 86 153 148 12 25 105 232 205 460
101 228 186 418 190 423 3 4 248 6 544 5 l538 -3 -52 -59 c-161 -183 -261
-380 -318 -619 -23 -100 -26 -132 -26 -292 0 -148 4 -198 22 -282 120 -553
543 -969 1099 -1080 121 -24 384 -24 506 0 381 76 699 294 911 626 87 135 146
280 187 461 29 127 32 404 5 523 -25 115 -54 204 -72 222 -27 26 -63 30 -92 8
-35 -26 -38 -64 -14 -150 70 -242 61 -507 -24 -746 -105 -291 -324 -540 -597
-678 -292 -148 -630 -174 -942 -73 -628 203 -987 897 -789 1524 115 366 411
674 766 799 315 110 647 88 953 -64 179 -89 329 -215 449 -377 75 -102 108
-119 157 -79 38 30 30 75 -26 156 -62 89 -239 266 -330 330 -80 57 -250 145
-327 170 -29 10 -55 19 -57 21 -2 2 19 28 47 58 62 66 70 110 26 145 -36 28
-53 26 -102 -8z"/>
<path d="M3404 2050 c-39 -16 -74 -68 -74 -112 0 -111 131 -166 209 -87 95 94
-11 250 -135 199z"/>
<path d="M3963 2040 c-61 -37 -79 -108 -43 -167 36 -60 110 -80 164 -44 64 42
82 109 46 168 -37 61 -108 79 -167 43z"/>
<path d="M3035 1728 c-41 -24 -46 -39 -40 -124 21 -323 264 -601 590 -675 86
-19 249 -15 340 10 249 68 440 245 520 482 31 89 49 227 36 262 -14 36 -53 59
-84 52 -44 -11 -57 -37 -67 -126 -16 -157 -73 -272 -190 -382 -111 -105 -242
-157 -397 -157 -111 0 -173 14 -272 63 -114 55 -204 145 -261 259 -40 83 -69
191 -70 259 0 62 -58 105 -105 77z"/>
</g>
</svg>
